<svg version="1.2" xmlns="http://www.w3.org/2000/svg" viewBox="0 0 20 14" width="20" height="14"><style>.a{fill:#c6cacc}</style><path class="a" d="m17.5 5.1q1.2 0.4 2.4 0-0.3 0.8-2 1 0 0 0 0v0.1q1.5 0.3 2.1 0.2-0.7 0.9-2.4 0.9-0.2 1.2-1.2 2.6-2.2 2.7-5.3 3.5h-0.1q-3.2 0.9-6.4-0.1-2.9-1.1-4.6-3.4 1.7 1.3 3.2 1.3 2.4 0.2 4.1-1.5 0 0 0.1 0l-0.1-0.1q-1 0.1-1.3-0.5-0.1-0.5 0.2-0.8 0.2-0.2 0.5-0.4-1.7 0.1-2.4-1.2 0.5-0.5 1.3-0.5-2.1-0.6-2.2-2 0.6-0.2 1.1-0.2-1.6-0.9-1.6-2.5 1.5 0.5 3 1.2 1.3 0.5 2.3 1.1 0.8 0.5 1.4 1.2l0.1-0.1q0.4-1.5 1.4-3 0.3-0.6 0.9-1.2 0.3-0.3 0.7-0.5 0.1 0-0.2 0.5 0.8-0.7 1.5-0.7 0.2 0.2-0.5 0.6 0.5-0.2 1.2-0.3 0.3 0 0.2 0.3-0.2 0.3-1.6 0.6 0 0 0 0v0.1q1.5 0 2.7 1 0 0 0 0 1.3 1.3 1.5 2.8z"/></svg>